<svg width="198" height="51" viewBox="0 0 198 51" fill="none" xmlns="http://www.w3.org/2000/svg">
<path d="M46.528 34L42.016 28.336V34H38.656V16.24H42.016V26.344L46.48 20.704H50.848L44.992 27.376L50.896 34H46.528ZM72.3036 20.704L68.4156 34H64.7916L62.3676 24.712L59.9436 34H56.2956L52.3836 20.704H55.7916L58.1436 30.832L60.6876 20.704H64.2396L66.7356 30.808L69.0876 20.704H72.3036ZM98.7524 20.512C100.384 20.512 101.696 21.016 102.688 22.024C103.696 23.016 104.2 24.408 104.2 26.2V34H100.84V26.656C100.84 25.616 100.576 24.824 100.048 24.28C99.5204 23.72 98.8004 23.44 97.8884 23.44C96.9764 23.44 96.2484 23.72 95.7044 24.28C95.1764 24.824 94.9124 25.616 94.9124 26.656V34H91.5524V26.656C91.5524 25.616 91.2884 24.824 90.7604 24.28C90.2324 23.72 89.5124 23.44 88.6004 23.44C87.6724 23.44 86.9364 23.72 86.3924 24.28C85.8644 24.824 85.6004 25.616 85.6004 26.656V34H82.2404V20.704H85.6004V22.312C86.0324 21.752 86.5844 21.312 87.2564 20.992C87.9444 20.672 88.6964 20.512 89.5124 20.512C90.5524 20.512 91.4804 20.736 92.2964 21.184C93.1124 21.616 93.7444 22.24 94.1924 23.056C94.6244 22.288 95.2484 21.672 96.0644 21.208C96.8964 20.744 97.7924 20.512 98.7524 20.512ZM114.493 34.216C113.213 34.216 112.061 33.936 111.037 33.376C110.013 32.8 109.205 31.992 108.613 30.952C108.037 29.912 107.749 28.712 107.749 27.352C107.749 25.992 108.045 24.792 108.637 23.752C109.245 22.712 110.069 21.912 111.109 21.352C112.149 20.776 113.309 20.488 114.589 20.488C115.869 20.488 117.029 20.776 118.069 21.352C119.109 21.912 119.925 22.712 120.517 23.752C121.125 24.792 121.429 25.992 121.429 27.352C121.429 28.712 121.117 29.912 120.493 30.952C119.885 31.992 119.053 32.8 117.997 33.376C116.957 33.936 115.789 34.216 114.493 34.216ZM114.493 31.288C115.101 31.288 115.669 31.144 116.197 30.856C116.741 30.552 117.173 30.104 117.493 29.512C117.813 28.92 117.973 28.2 117.973 27.352C117.973 26.088 117.637 25.12 116.965 24.448C116.309 23.76 115.501 23.416 114.541 23.416C113.581 23.416 112.773 23.76 112.117 24.448C111.477 25.12 111.157 26.088 111.157 27.352C111.157 28.616 111.469 29.592 112.093 30.28C112.733 30.952 113.533 31.288 114.493 31.288ZM132.462 20.512C134.046 20.512 135.326 21.016 136.302 22.024C137.278 23.016 137.766 24.408 137.766 26.2V34H134.406V26.656C134.406 25.6 134.142 24.792 133.614 24.232C133.086 23.656 132.366 23.368 131.454 23.368C130.526 23.368 129.79 23.656 129.246 24.232C128.718 24.792 128.454 25.6 128.454 26.656V34H125.094V20.704H128.454V22.36C128.902 21.784 129.47 21.336 130.158 21.016C130.862 20.68 131.63 20.512 132.462 20.512ZM154.521 27.064C154.521 27.544 154.489 27.976 154.425 28.36H144.705C144.785 29.32 145.121 30.072 145.713 30.616C146.305 31.16 147.033 31.432 147.897 31.432C149.145 31.432 150.033 30.896 150.561 29.824H154.185C153.801 31.104 153.065 32.16 151.977 32.992C150.889 33.808 149.553 34.216 147.969 34.216C146.689 34.216 145.537 33.936 144.513 33.376C143.505 32.8 142.713 31.992 142.137 30.952C141.577 29.912 141.297 28.712 141.297 27.352C141.297 25.976 141.577 24.768 142.137 23.728C142.697 22.688 143.481 21.888 144.489 21.328C145.497 20.768 146.657 20.488 147.969 20.488C149.233 20.488 150.361 20.76 151.353 21.304C152.361 21.848 153.137 22.624 153.681 23.632C154.241 24.624 154.521 25.768 154.521 27.064ZM151.041 26.104C151.025 25.24 150.713 24.552 150.105 24.04C149.497 23.512 148.753 23.248 147.873 23.248C147.041 23.248 146.337 23.504 145.761 24.016C145.201 24.512 144.857 25.208 144.729 26.104H151.041ZM170.893 20.704L162.661 40.288H159.085L161.965 33.664L156.637 20.704H160.405L163.837 29.992L167.317 20.704H170.893Z" fill="white"/>
<path d="M28.1673 14.5398C25.0509 11.6122 20.9073 10 16.5 10C12.0927 10 7.94913 11.6122 4.8327 14.5398C1.71626 17.4674 0 21.3598 0 25.5C0 29.6402 1.71632 33.5326 4.8327 36.4602C7.94907 39.3878 12.0927 41 16.5 41C20.9073 41 25.0509 39.3878 28.1673 36.4602C31.2837 33.5326 33 29.6402 33 25.5C33 21.3598 31.2837 17.4674 28.1673 14.5398Z" fill="#33CC95"/>
<g clip-path="url(#clip0_1_14)">
<path d="M16.9714 16.2V35.6857" stroke="white" stroke-width="2" stroke-linecap="round" stroke-linejoin="round"/>
<path d="M21.6857 19.7429H14.6143C13.7391 19.7429 12.8997 20.0695 12.2808 20.6508C11.662 21.2322 11.3143 22.0207 11.3143 22.8429C11.3143 23.665 11.662 24.4535 12.2808 25.0349C12.8997 25.6162 13.7391 25.9429 14.6143 25.9429H19.3286C20.2038 25.9429 21.0432 26.2695 21.662 26.8508C22.2809 27.4322 22.6286 28.2207 22.6286 29.0429C22.6286 29.865 22.2809 30.6535 21.662 31.2349C21.0432 31.8162 20.2038 32.1429 19.3286 32.1429H11.3143" stroke="white" stroke-width="2" stroke-linecap="round" stroke-linejoin="round"/>
</g>
<defs>
<clipPath id="clip0_1_14">
<rect width="22.6286" height="21.2571" fill="white" transform="translate(5.65715 15.3143)"/>
</clipPath>
</defs>
</svg>
